<svg id="Слой_1" data-name="Слой 1" xmlns="http://www.w3.org/2000/svg" viewBox="0 0 1200 397.81"><defs><style>.cls-1{fill:#8b222a;}.cls-2{fill:#adacac;}</style></defs><path class="cls-1" d="M197.63,161V239.7H164.08v77.13H89V146.69q0-28.72,9.84-49,12.45-25.92,37.86-42.28T189.59,39l8,.21V118c-1.74-.13-3-.2-3.82-.2q-14.26,0-22,9.44t-7.74,26.92V161Z"/><path class="cls-1" d="M341.85,241.71v77.73A99.27,99.27,0,0,1,325,321.05q-45.19,0-75.33-29.73T219.52,216.8q0-43.59,30.44-73.92t74-30.34q48.6,0,76.63,28.43t28,77.63v98.23H353.51V224q0-15.87-7.74-25.31T325,189.28a29.51,29.51,0,0,0-29.13,29.12q0,12.47,7.84,20.49t19.89,8A34.09,34.09,0,0,0,341.85,241.71Z"/><path class="cls-1" d="M595.76,42.64h75.13V209.57q0,46-24.11,74.92A98.57,98.57,0,0,1,611.53,311a104,104,0,0,1-43.89,9.84q-44.8,0-75.53-30.13T461.37,216.8q0-42.39,30.54-73.32t72.31-30.94q6.63,0,20.09,1.21v82.76q-9.24-7.23-18.48-7.23a27,27,0,0,0-20,8.53,28.41,28.41,0,0,0-8.33,20.59,26.77,26.77,0,0,0,8.63,20,28.75,28.75,0,0,0,20.69,8.34q28.93,0,28.93-40Z"/><path class="cls-1" d="M860.91,116.56,767.3,324.67,674.9,116.56h71.71l21.3,54,23.3-54Z"/><path class="cls-1" d="M944.07,116.56V316.83H869V116.56ZM906.71,27.17a36.82,36.82,0,0,1,26.42,10.75q11.14,10.76,11.14,25.41Q944.27,79,933.73,89t-27,10q-16.47,0-27-10T869.15,63.33q0-14.65,11.15-25.41A36.78,36.78,0,0,1,906.71,27.17Z"/><path class="cls-1" d="M1113.81,119.37v79.15q-15.87,0-21.79,5.92t-7.54,23.4q-5.22,58.07-45,82-21.09,12.45-59.86,12.46H969.18V242.71h3.42q18.07,0,25.81-7.53t8.94-26.42q1.6-30.73,5.72-43.19t16.78-24.7q22.1-21.5,61.26-21.5Z"/><path class="cls-2" d="M533.12,381.35h-4.46V348.68H507.9v32.67h-4.47V344.93h29.69Z"/><path class="cls-2" d="M545.81,344.93v7q4-8.07,13-8.07a14.87,14.87,0,0,1,11.94,5.31q4.5,5.31,4.5,14.1t-4.46,13.92A14.73,14.73,0,0,1,559,382.48q-9.21,0-12.89-7.86V395h-4.32v-50Zm21.57,6.91a11.83,11.83,0,0,0-18.14-.11Q546,355.92,546,363.21t3.36,11.34a11.11,11.11,0,0,0,9.11,4.18,10.89,10.89,0,0,0,9-4.22q3.36-4.22,3.37-11.23T567.38,351.84Z"/><path class="cls-2" d="M597.74,343.87c5.25,0,9.41,1.74,12.51,5.24s4.64,8.22,4.64,14.17-1.54,10.57-4.61,14-7.25,5.14-12.54,5.14-9.51-1.73-12.65-5.21-4.71-8.16-4.71-14.06,1.57-10.53,4.71-14S592.45,343.87,597.74,343.87Zm9.21,8a12.31,12.31,0,0,0-18.56,0q-3.48,4.21-3.47,11.3t3.43,11.41a11.61,11.61,0,0,0,9.46,4.18,11.25,11.25,0,0,0,9.21-4.18q3.4-4.19,3.41-11.34T607,351.84Z"/><path class="cls-2" d="M648.9,348.68H635.37v32.67H630.9V348.68H617.37v-3.75H648.9Z"/><path class="cls-2" d="M683.41,369.37a16.57,16.57,0,0,1-5.25,9.68,15.23,15.23,0,0,1-10.34,3.5,15.39,15.39,0,0,1-12.15-5.17q-4.57-5.17-4.57-13.82t4.64-14.13a15,15,0,0,1,12-5.49q7.72,0,11.87,5.45a21.76,21.76,0,0,1,4.14,13.54v1.27H655.63a17.36,17.36,0,0,0,3.08,10.52q3.09,4.21,9.25,4.22,9,0,11.13-9.57Zm-4.11-8.78q-.36-6.09-3.47-9.53a10.58,10.58,0,0,0-8.22-3.44q-5.54,0-8.4,3.61a18.36,18.36,0,0,0-3.58,9.36Z"/><path class="cls-2" d="M688.3,355.49q.91-11.62,14.31-11.62,6.09,0,9.81,2.37t3.72,7.48a8.37,8.37,0,0,1-1.77,5.31,7.06,7.06,0,0,1-4.11,2.76v.14a9.44,9.44,0,0,1,5,2.63,8.05,8.05,0,0,1,2.06,5.95,10.25,10.25,0,0,1-4.25,8.78,17.15,17.15,0,0,1-10.42,3.12q-7,0-10.88-3.33a12.5,12.5,0,0,1-4.21-9.14h4.46q1.2,8.71,10.7,8.72c3.69,0,6.26-.77,7.73-2.31a7.94,7.94,0,0,0,2.19-5.7,6.28,6.28,0,0,0-1.91-4.78q-1.92-1.81-5.88-1.81h-6.1v-3.4h5a8.53,8.53,0,0,0,5.53-1.77,6,6,0,0,0,2.2-4.89q0-6.37-9-6.38t-9.85,7.87Z"/><path class="cls-2" d="M753.84,381.35h-4.47V364.2H728.61v17.15h-4.46V344.93h4.46v15.52h20.76V344.93h4.47Z"/><path class="cls-2" d="M762.06,344.93h4.46v14.31h11.83a11.65,11.65,0,0,1,8.43,3,12.06,12.06,0,0,1,0,16.19,11.76,11.76,0,0,1-8.43,2.94H762.06Zm23.38,25.37a6.83,6.83,0,0,0-2.16-5.39,8.71,8.71,0,0,0-6-1.91H766.52v14.59h10.77a8.79,8.79,0,0,0,6-1.87A6.84,6.84,0,0,0,785.44,370.3Zm11.34-25.37h4.46v36.42h-4.46Z"/><path class="cls-2" d="M839.86,369.37a16.57,16.57,0,0,1-5.25,9.68,15.23,15.23,0,0,1-10.34,3.5,15.39,15.39,0,0,1-12.15-5.17q-4.57-5.17-4.57-13.82t4.64-14.13a15,15,0,0,1,12-5.49q7.72,0,11.86,5.45a21.7,21.7,0,0,1,4.15,13.54v1.27H812.08a17.36,17.36,0,0,0,3.08,10.52q3.09,4.21,9.25,4.22,9,0,11.12-9.57Zm-4.11-8.78q-.36-6.09-3.48-9.53a10.56,10.56,0,0,0-8.21-3.44q-5.53,0-8.4,3.61a18.36,18.36,0,0,0-3.58,9.36Z"/><path class="cls-2" d="M896.54,368.31a17.16,17.16,0,0,1-4.92,10.24,14.41,14.41,0,0,1-10.45,3.86q-7.67,0-12.26-5.17t-4.61-13.75q0-8.92,4.64-14.27a15.56,15.56,0,0,1,12.37-5.35,15.33,15.33,0,0,1,10.24,3.33,14,14,0,0,1,4.71,9.21h-4.54q-1.77-8.87-10.34-8.86a11.05,11.05,0,0,0-9.11,4.22q-3.36,4.22-3.36,11.37t3.26,11.37A11.44,11.44,0,0,0,888.46,376a12.63,12.63,0,0,0,3.62-7.69Z"/><path class="cls-2" d="M932.39,381.35h-4.46V350.17l-19.7,31.18h-5.52V344.93h4.46v31.18l19.7-31.18h5.52Z"/><path class="cls-2" d="M971.36,368.31a17.1,17.1,0,0,1-4.92,10.24A14.39,14.39,0,0,1,956,382.41a15.61,15.61,0,0,1-12.26-5.17q-4.61-5.17-4.61-13.75,0-8.92,4.65-14.27a15.53,15.53,0,0,1,12.36-5.35,15.31,15.31,0,0,1,10.24,3.33,14,14,0,0,1,4.71,9.21h-4.53q-1.78-8.87-10.35-8.86a11,11,0,0,0-9.1,4.22q-3.37,4.22-3.37,11.37T947,374.51a11.45,11.45,0,0,0,16.3,1.49,12.62,12.62,0,0,0,3.61-7.69Z"/><path class="cls-2" d="M1004.88,348.68H991.35v32.67h-4.47V348.68H973.35v-3.75h31.53Z"/><path class="cls-2" d="M1039.39,369.37a16.57,16.57,0,0,1-5.25,9.68,15.23,15.23,0,0,1-10.34,3.5,15.39,15.39,0,0,1-12.15-5.17q-4.57-5.17-4.57-13.82t4.64-14.13a15,15,0,0,1,12-5.49q7.73,0,11.87,5.45a21.76,21.76,0,0,1,4.14,13.54v1.27h-28.13a17.36,17.36,0,0,0,3.08,10.52q3.09,4.21,9.25,4.22,9,0,11.12-9.57Zm-4.11-8.78q-.36-6.09-3.48-9.53a10.54,10.54,0,0,0-8.21-3.44q-5.54,0-8.4,3.61a18.36,18.36,0,0,0-3.58,9.36Z"/><path class="cls-2" d="M1084.73,381.35h-4.46v-30h-.21l-12.83,30h-4l-12.83-30h-.21v30h-4.47V344.93h6l13.6,31.39,13.46-31.39h6Z"/><path class="cls-2" d="M1092.88,344.93h4.47v14.31h11.83a11.68,11.68,0,0,1,8.43,3,12.06,12.06,0,0,1,0,16.19,11.79,11.79,0,0,1-8.43,2.94h-16.3Zm23.39,25.37a6.83,6.83,0,0,0-2.17-5.39,8.68,8.68,0,0,0-6-1.91h-10.77v14.59h10.77a8.82,8.82,0,0,0,6-1.87A6.84,6.84,0,0,0,1116.27,370.3Zm11.33-25.37h4.47v36.42h-4.47Z"/><path class="cls-1" d="M1115.59,284.47a21.64,21.64,0,0,1,10.35,2.72,19.33,19.33,0,0,1,7.86,7.79,21.16,21.16,0,0,1,0,21,19.56,19.56,0,0,1-7.79,7.8,21.19,21.19,0,0,1-21,0,19.64,19.64,0,0,1-7.8-7.8,21.06,21.06,0,0,1,0-21,19.46,19.46,0,0,1,7.89-7.79A21.58,21.58,0,0,1,1115.59,284.47Zm0,3.49a18,18,0,0,0-8.64,2.27,16.37,16.37,0,0,0-6.57,6.5,17.52,17.52,0,0,0,0,17.53,16.54,16.54,0,0,0,6.51,6.5,17.54,17.54,0,0,0,17.47,0,16.52,16.52,0,0,0,6.5-6.5,17.59,17.59,0,0,0,0-17.53,16.25,16.25,0,0,0-6.57-6.5A18,18,0,0,0,1115.59,288Zm6.75,21,3.43,1a9.55,9.55,0,0,1-3.56,5.57,11.55,11.55,0,0,1-14.57-1.1q-3.08-3.18-3.07-8.82a13.85,13.85,0,0,1,1.39-6.4,9.39,9.39,0,0,1,4-4.1,12.3,12.3,0,0,1,5.9-1.38,10.25,10.25,0,0,1,6.16,1.77,8.75,8.75,0,0,1,3.35,4.81l-3.32.81a7,7,0,0,0-11.59-2c-1.39,1.53-2.08,3.71-2.08,6.56s.66,5,2,6.45a6.53,6.53,0,0,0,5.09,2.2,7.07,7.07,0,0,0,4.41-1.46A6.83,6.83,0,0,0,1122.34,308.94Z"/></svg>